<?xml version="1.0" encoding="UTF-8"?>
<svg width="136px" height="24px" viewBox="0 0 136 24" version="1.1" xmlns="http://www.w3.org/2000/svg" xmlns:xlink="http://www.w3.org/1999/xlink">
    <title>资源 1</title>
    <g id="Temp" stroke="none" stroke-width="1" fill="none" fill-rule="evenodd">
        <g id="画板" transform="translate(-80.000000, -195.000000)">
            <g id="资源-1" transform="translate(80.000000, 195.000000)">
                <g id="Logo" fill="#D80D18" fill-rule="nonzero">
                    <path d="M1.13498611,9.67203188 C9.08752335,0.500529734 17.2945418,6.69841916 17.2945418,6.69841916 C7.33287554,3.83296094 1.13498611,9.67203188 1.13498611,9.67203188 Z" id="路径"></path>
                    <path d="M4.80078768,4.96412984 C4.73207776,5.03411216 15.8350921,-1.53277499 24.1413582,10.8871796 C24.1413582,10.8871796 20.7058622,14.4690023 15.2090684,15.9030039 C15.2090684,15.9030039 24.1413582,17.429891 30.0644097,11.1251195 C30.0694976,11.1289367 18.5580409,-9.07686991 4.80078768,4.96412984 Z" id="路径"></path>
                    <path d="M12.7775006,16.8089569 C12.7775006,16.8089569 20.9819742,23.0068463 28.9370563,13.8353442 C28.9357839,13.8391614 22.7378945,19.6795047 12.7775006,16.8127741 L12.7775006,16.8089569 Z" id="路径"></path>
                    <path d="M5.92304973,12.6214689 C5.92304973,12.6214689 9.35854582,9.03837371 14.8553396,7.6056446 C14.8553396,7.6056446 5.92304973,6.07875745 0,12.3822566 C0,12.3822566 11.5114567,32.5880632 25.2687099,18.5445186 C25.3386922,18.4745363 14.2344055,25.0414234 5.92304973,12.6214689 Z" id="路径"></path>
                    <path d="M15.0283868,14.1254527 C16.3635745,14.1254527 17.4459581,13.0430692 17.4459581,11.7078814 C17.4459581,10.3726936 16.3635745,9.29031009 15.0283868,9.29031009 C13.693199,9.29031009 12.6108155,10.3726936 12.6108155,11.7078814 C12.6108155,13.0430692 13.693199,14.1254527 15.0283868,14.1254527 Z" id="路径"></path>
                </g>
                <text id="从容大模型" font-family="SourceHanSansCN-Normal, Source Han Sans CN" font-size="20" font-weight="normal" fill="#FFFFFF">
                    <tspan x="36" y="18.874506">从容大模型</tspan>
                </text>
            </g>
        </g>
    </g>
</svg>